<?xml version="1.0" standalone="no"?><!DOCTYPE svg PUBLIC "-//W3C//DTD SVG 1.1//EN" "http://www.w3.org/Graphics/SVG/1.1/DTD/svg11.dtd"><svg t="1763280598104" class="icon" viewBox="0 0 1024 1024" version="1.1" xmlns="http://www.w3.org/2000/svg" p-id="10179" xmlns:xlink="http://www.w3.org/1999/xlink" width="200" height="200"><path d="M144.0768 485.376h367.7184v452.4032c106.752 0 367.7184-191.3344 367.7184-358.5024V485.376H511.7952V105.1136A1114.624 1114.624 0 0 1 340.736 186.368c-63.3344 23.296-129.4336 38.4-196.6592 45.056v253.952zM511.7952 1024C350.6688 1024 51.0464 795.5456 51.0464 579.4304V148.9408l45.7728-0.6656c1.024 0 103.2192-2.048 208.7424-41.7792C413.8496 65.7408 483.6864 18.944 484.3008 18.4832L511.5904 0l27.648 18.4832c0.768 0.4608 70.4512 47.2576 178.688 88.0128 66.816 24.4736 137.3184 38.5024 208.896 41.7792l45.568 0.6144 0.256 430.592C972.6464 795.4944 673.024 1024 511.7952 1024z" p-id="10180" fill="#c0cbda"></path></svg>